<svg width="50" height="50" viewBox="0 0 50 50" fill="none" xmlns="http://www.w3.org/2000/svg">
<path opacity="0.4" d="M43.75 47.3959H6.25C5.39583 47.3959 4.6875 46.6875 4.6875 45.8334C4.6875 44.9792 5.39583 44.2709 6.25 44.2709H43.75C44.6042 44.2709 45.3125 44.9792 45.3125 45.8334C45.3125 46.6875 44.6042 47.3959 43.75 47.3959Z" fill="white"/>
<path d="M11.6666 17.4583H8.33333C7.1875 17.4583 6.25 18.3958 6.25 19.5416V37.4999C6.25 38.6457 7.1875 39.5832 8.33333 39.5832H11.6666C12.8124 39.5832 13.7499 38.6457 13.7499 37.4999V19.5416C13.7499 18.3749 12.8124 17.4583 11.6666 17.4583Z" fill="white"/>
<path d="M26.6666 10.8125H23.3333C22.1875 10.8125 21.25 11.75 21.25 12.8958V37.5C21.25 38.6458 22.1875 39.5833 23.3333 39.5833H26.6666C27.8125 39.5833 28.75 38.6458 28.75 37.5V12.8958C28.75 11.75 27.8125 10.8125 26.6666 10.8125Z" fill="white"/>
<path d="M41.6666 4.16663H38.3333C37.1875 4.16663 36.25 5.10413 36.25 6.24996V37.5C36.25 38.6458 37.1875 39.5833 38.3333 39.5833H41.6666C42.8124 39.5833 43.7499 38.6458 43.7499 37.5V6.24996C43.7499 5.10413 42.8124 4.16663 41.6666 4.16663Z" fill="white"/>
</svg>
