<svg width="50" height="50" viewBox="0 0 50 50" fill="none" xmlns="http://www.w3.org/2000/svg">
<path opacity="0.4" d="M45.8346 16.6666V33.7291C45.8346 41.3125 41.3138 45.8333 33.7305 45.8333H16.2721C8.6888 45.8333 4.16797 41.3125 4.16797 33.7291V16.6875L45.8346 16.6666Z" fill="white"/>
<path d="M18.7487 36.9792C18.5195 36.9792 18.2695 36.9167 18.0612 36.8125C16.457 36 15.082 34.7917 14.082 33.2917C13.2487 32.0417 13.2487 30.4375 14.082 29.1875C15.082 27.6875 16.457 26.4792 18.0612 25.6875C18.832 25.2917 19.7695 25.625 20.1654 26.3959C20.5612 27.1667 20.2487 28.1042 19.457 28.5C18.332 29.0625 17.3737 29.9167 16.6862 30.9584C16.5612 31.1459 16.5612 31.3959 16.6862 31.6042C17.3737 32.6459 18.332 33.5 19.457 34.0625C20.2279 34.4584 20.5404 35.3959 20.1654 36.1667C19.8737 36.6667 19.3112 36.9792 18.7487 36.9792Z" fill="white"/>
<path d="M31.6882 36.9792C31.1049 36.9792 30.5632 36.6667 30.2924 36.125C29.8965 35.3542 30.209 34.4167 31.0007 34.0208C32.1257 33.4583 33.084 32.6042 33.7715 31.5625C33.8965 31.375 33.8965 31.125 33.7715 30.9167C33.084 29.875 32.1257 29.0208 31.0007 28.4583C30.2299 28.0625 29.9174 27.125 30.2924 26.3542C30.6882 25.5833 31.6257 25.2708 32.3965 25.6458C34.0007 26.4583 35.3757 27.6667 36.3757 29.1667C37.209 30.4167 37.209 32.0208 36.3757 33.2708C35.3757 34.7708 34.0007 35.9792 32.3965 36.7708C32.1465 36.9167 31.9174 36.9792 31.6882 36.9792Z" fill="white"/>
<path d="M45.8346 16.2708V16.6666L4.16797 16.6875V16.2708C4.16797 8.68746 8.6888 4.16663 16.2721 4.16663H33.7305C41.3138 4.16663 45.8346 8.68746 45.8346 16.2708Z" fill="white"/>
</svg>
