<svg width="50" height="50" viewBox="0 0 50 50" fill="none" xmlns="http://www.w3.org/2000/svg">
<path d="M26.0833 3.125H24C22.2708 3.125 20.875 4.52083 20.875 6.25V8.33333C20.875 10.0625 22.2708 11.4583 24 11.4583H26.0833C27.8125 11.4583 29.2083 10.0625 29.2083 8.33333V6.25C29.2083 4.52083 27.8125 3.125 26.0833 3.125Z" fill="white"/>
<path d="M8.89583 22.2291H6.8125C5.08333 22.2291 3.6875 23.625 3.6875 25.3541V27.4375C3.6875 29.1666 5.08333 30.5625 6.8125 30.5625H8.89583C10.625 30.5625 12.0208 29.1666 12.0208 27.4375V25.3541C12.0208 23.625 10.6042 22.2291 8.89583 22.2291Z" fill="white"/>
<path d="M43.1888 22.2291H41.1055C39.3763 22.2291 37.9805 23.625 37.9805 25.3541V27.4375C37.9805 29.1666 39.3763 30.5625 41.1055 30.5625H43.1888C44.918 30.5625 46.3138 29.1666 46.3138 27.4375V25.3541C46.3138 23.625 44.918 22.2291 43.1888 22.2291Z" fill="white"/>
<path d="M7.8125 24.8334C6.95833 24.8334 6.25 24.125 6.25 23.2709C6.25 14.375 12.9167 6.8959 21.75 5.85423C22.5833 5.7709 23.375 6.37501 23.4792 7.22918C23.5833 8.08334 22.9583 8.85421 22.1042 8.95838C14.8542 9.81255 9.375 15.9584 9.375 23.2709C9.375 24.125 8.66667 24.8334 7.8125 24.8334Z" fill="white"/>
<path d="M42.1875 24.8333C41.3333 24.8333 40.625 24.1249 40.625 23.2708C40.625 15.9999 35.1874 9.85413 27.9791 8.97913C27.1249 8.87496 26.5208 8.10409 26.625 7.24993C26.7291 6.39576 27.5208 5.79167 28.375 5.89583C37.1458 6.95833 43.7708 14.4375 43.7708 23.2916C43.75 24.125 43.0625 24.8333 42.1875 24.8333Z" fill="white"/>
<path d="M27.6847 45.8542H22.3305C20.4139 45.8542 18.9972 44.3124 19.3513 42.6457L20.2264 38.7916H29.7889L30.6639 42.6457C31.0597 44.4166 29.7263 45.8542 27.6847 45.8542Z" fill="white"/>
<path opacity="0.4" d="M33.4781 35.5208L29.7906 38.7916H20.2281L16.5406 35.5208C14.3948 33.7708 14.3948 32.4166 16.0198 30.3541L22.5198 22.1458C22.9781 21.5833 23.499 21.1875 24.0615 21C24.6656 20.7917 25.3323 20.7917 25.9364 21C26.4989 21.2083 27.0198 21.5833 27.4781 22.1458L33.9781 30.3541C35.6031 32.4166 35.5406 33.7083 33.4781 35.5208Z" fill="white"/>
</svg>
